<svg width="63" height="71" viewBox="0 0 63 71" fill="none" xmlns="http://www.w3.org/2000/svg">
<path d="M20.5 23V52.5C19.4973 56.9972 18.3803 57.1735 14.5 58L2 52.5V20L30 3L60.5 20V49.5L30 68L23 63.5" stroke="#71976E" stroke-width="4"/>
<path d="M44.3097 29.7756C44.196 28.6297 43.7083 27.7396 42.8466 27.1051C41.9848 26.4706 40.8153 26.1534 39.3381 26.1534C38.3343 26.1534 37.4867 26.2955 36.7955 26.5795C36.1042 26.8542 35.5739 27.2377 35.2045 27.7301C34.8447 28.2225 34.6648 28.7812 34.6648 29.4062C34.6458 29.9271 34.7547 30.3816 34.9915 30.7699C35.2377 31.1581 35.5739 31.4943 36 31.7784C36.4261 32.053 36.9186 32.2945 37.4773 32.5028C38.036 32.7017 38.6326 32.8722 39.267 33.0142L41.8807 33.6392C43.1496 33.9233 44.3144 34.3021 45.375 34.7756C46.4356 35.2491 47.3542 35.8314 48.1307 36.5227C48.9072 37.214 49.5085 38.0284 49.9347 38.9659C50.3703 39.9034 50.5928 40.9782 50.6023 42.1903C50.5928 43.9706 50.1383 45.5142 49.2386 46.821C48.3485 48.1184 47.0606 49.1269 45.375 49.8466C43.6989 50.5568 41.6771 50.9119 39.3097 50.9119C36.9612 50.9119 34.9157 50.5521 33.1733 49.8324C31.4403 49.1127 30.0862 48.0473 29.1108 46.6364C28.1449 45.2159 27.6383 43.4593 27.5909 41.3665H33.5426C33.6089 42.3419 33.8883 43.1562 34.3807 43.8097C34.8826 44.4536 35.5502 44.9413 36.3835 45.2727C37.2263 45.5947 38.178 45.7557 39.2386 45.7557C40.2803 45.7557 41.1847 45.6042 41.9517 45.3011C42.7282 44.9981 43.3295 44.5767 43.7557 44.0369C44.1818 43.4972 44.3949 42.8769 44.3949 42.1761C44.3949 41.5227 44.2008 40.9735 43.8125 40.5284C43.4337 40.0833 42.875 39.7045 42.1364 39.392C41.4072 39.0795 40.5123 38.7955 39.4517 38.5398L36.2841 37.7443C33.8314 37.1477 31.8949 36.215 30.4744 34.946C29.054 33.6771 28.3485 31.9678 28.358 29.8182C28.3485 28.0568 28.8172 26.518 29.7642 25.2017C30.7206 23.8854 32.0322 22.858 33.6989 22.1193C35.3655 21.3807 37.2595 21.0114 39.3807 21.0114C41.5398 21.0114 43.4242 21.3807 45.0341 22.1193C46.6534 22.858 47.9129 23.8854 48.8125 25.2017C49.7121 26.518 50.1761 28.0426 50.2045 29.7756H44.3097Z" fill="#71976E"/>
</svg>
