<svg width="109" height="100" viewBox="0 0 109 100" fill="none" xmlns="http://www.w3.org/2000/svg">
<path d="M73.8698 99.2391H31.8698C25.9959 98.9667 24.203 96.5667 21.3698 91.7391L3.36982 59.7391C-1.52961 51.7333 -0.697726 47.2449 3.36982 39.2391L21.3698 7.23911C24.348 1.46125 27.8141 0.000254378 36.8698 0.239114H70.8698C79.766 -0.625783 83.6382 0.667581 87.8698 7.23911L105.37 39.2391C110.171 47.0571 109.652 51.5658 105.37 59.7391L87.8698 89.7391C84.8203 96.1975 82.4272 99.0415 73.8698 99.2391Z" fill="#6DB33F"/>
<path d="M35.4622 24.7915C38.8054 24.7583 40.0816 25.6354 39.9622 30.7915C36.0589 34.7971 34.1801 37.4039 31.4622 42.7915C29.2226 53.4297 30.7913 58.6136 37.4622 66.7915C48.8184 74.7116 54.6408 72.8495 64.9622 68.7915C74.1132 60.3401 75.5697 54.5292 73.4622 42.7915C70.7212 37.0828 68.5487 34.5525 63.9622 30.7915C64.5432 26.819 65.3251 25.0662 69.4622 24.7915C74.8923 29.1973 77.3644 32.1057 80.4622 38.2915C84.3971 54.0537 82.0414 61.0579 73.4622 71.7915C59.4595 82.8686 50.6069 81.6143 35.4622 76C30.0909 71.6062 28.0835 68.4462 24.4622 62.2915C21.6665 54.1423 21.3767 49.8832 22.9622 42.7915C26.6599 33.682 29.6092 30.1142 35.4622 24.7915Z" fill="white"/>
<path d="M56.4622 21.7914C52.7805 17.8412 50.9619 18.3051 47.9622 21.7914V50.2914C51.6718 54.8989 53.4491 53.9092 56.4622 50.2914V21.7914Z" fill="white"/>
</svg>
