<svg width="56" height="55" viewBox="0 0 56 55" fill="none" xmlns="http://www.w3.org/2000/svg">
<path d="M21.0001 49.5002V55.0002C11.3085 51.9228 7.05298 48.8722 2.50007 40.0002C0.446006 31.7703 0.422076 27.4406 1.50007 20.0002C4.39441 10.1608 8.11881 6.64918 17.5001 3.00019C24.9825 0.500987 29.3236 0.122598 37.5001 2.50019C46.1025 7.13672 49.4754 10.3683 53.5001 17.0002C56.378 28.3934 55.9495 34.0506 52.0001 43.0002C48.6414 49.3585 45.4429 51.9692 37.5001 55.0002L35.0001 54.0002V45.0002C35.0082 43.3181 34.8329 42.4298 34.0001 41.0002C47.9195 36.352 47.3998 30.6494 42.5001 19.0002V12.5002L34.0001 15.5002C28.9234 14.0986 26.0768 14.3679 21.0001 15.5002L13.0001 12.5002V20.0002C8.32886 30.1562 8.59614 35.1611 22.0001 41.0002C21.4368 42.7258 21.2066 43.6104 21.0001 45.0002H15.0001L14.0001 43.0002L12.0001 41.0002L7.50007 39.0002V41.0002L10.5001 43.0002L15.0001 49.5002H21.0001Z" fill="black"/>
</svg>
