<svg width="216" height="232" viewBox="0 0 216 232" fill="none" xmlns="http://www.w3.org/2000/svg">
<path d="M92.6299 0.500977C102.699 1.13957 109.807 3.15083 115.159 8.30078C120.493 13.4332 124.006 21.6119 127.084 34.3828L127.093 34.418L127.096 34.4541L129.554 61H153.599V38.7695C150.817 36.9509 148.981 35.1627 147.703 32.8945C146.397 30.5767 145.695 27.7998 145.104 24.0781L145.086 23.9619L145.121 23.8496C146.771 18.634 148.426 15.1684 150.818 13.1387C153.092 11.2091 155.953 10.6388 159.853 10.9326L160.648 11.0029L160.665 11.0039L160.682 11.0068C165.478 11.8189 168.924 12.8805 171.186 15.1328C173.463 17.4019 174.449 20.7834 174.598 25.9854L174.599 26.0059L174.598 26.0264C174.457 28.7138 174.057 30.7851 172.961 32.6484C171.898 34.4552 170.209 36.0148 167.599 37.7656V66.5342L167.594 66.5674C167.227 69.243 166.752 71.2272 165.703 72.54C164.616 73.9 162.995 74.4529 160.608 74.5H131.099V93.5H188.251C189.153 91.11 190.273 89.4656 192.011 88.3115C193.804 87.1201 196.199 86.4893 199.526 86.0049L199.577 85.998L199.629 86.001C205.382 86.3589 208.968 87.5578 211.324 89.9443C213.666 92.3168 214.703 95.7801 215.589 100.406L215.607 100.5L215.589 100.595C214.655 105.434 213.421 108.72 211.254 110.956C209.079 113.201 206.036 114.316 201.675 114.994L201.646 114.998L201.617 115C198.247 115.13 195.73 114.796 193.615 113.52C191.563 112.281 189.961 110.197 188.295 107H131.099V128.5H200.16L200.22 128.515C202.449 129.073 203.974 129.845 205.04 131.199C206.09 132.533 206.642 134.368 207.091 136.913L207.099 136.956V183.748C209.699 185.673 211.768 187.287 213.145 189.364C214.576 191.523 215.232 194.135 215.098 198.018L215.096 198.072L215.082 198.126C213.851 202.856 212.527 206.185 210.334 208.401C208.12 210.639 205.093 211.673 200.635 211.999L200.538 212.006L200.445 211.976C196.355 210.661 193.37 209.354 191.233 207.268C189.081 205.166 187.842 202.331 187.105 198.086L187.103 198.071L187.102 198.058C186.776 195.245 187.063 193.066 188.154 190.979C189.21 188.96 191 187.069 193.599 184.775V143H130.099V160.023L150.622 161.001L150.668 161.003L150.713 161.014C152.752 161.494 154.151 162.113 155.077 163.157C156.005 164.203 156.388 165.597 156.595 167.444L156.599 167.472V192.254C159.305 194.34 161.156 196.169 162.277 198.338C163.431 200.569 163.783 203.102 163.598 206.527L163.597 206.542L163.595 206.558C163.076 211.042 162.047 214.049 159.987 216.116C157.934 218.177 154.934 219.224 150.687 219.992L150.642 220H150.595C145.778 219.964 142.442 219.164 139.969 217.034C137.511 214.917 135.991 211.558 134.616 206.635L134.588 206.531L134.603 206.426C135.161 202.694 135.895 200.095 137.181 198.175C138.427 196.314 140.157 195.141 142.599 194.16V174.5H127.599V201.595L127.563 201.683C123.993 210.765 120.831 217.552 115.951 222.397C111.05 227.263 104.468 230.124 94.164 231.496L94.0996 231.504L94.0351 231.496C81.4914 229.893 73.5414 227.206 68.0801 222.613C62.6816 218.074 59.7866 211.73 57.2178 202.975C50.5768 202.548 45.4803 201.326 40.6191 198.762C35.6841 196.158 31.0235 192.19 25.2431 186.352L25.2246 186.333L25.209 186.313C19.8448 179.642 16.736 174.176 15.3301 168.349C13.9398 162.586 14.2274 156.522 15.5625 148.67C8.52815 141.613 4.41447 135.481 2.31248 128.53C0.19567 121.53 0.135006 113.751 1.10057 103.453L1.10642 103.384L1.13182 103.319C3.68091 96.7465 6.17104 92.114 9.3115 88.1562C12.4105 84.2508 16.1254 81.0247 21.1054 77.2461C21.6217 59.1694 25.1741 48.972 31.414 42.1104C37.6154 35.2914 46.4251 31.835 57.1972 27.1279C59.9868 19.0175 63.2872 13.4033 68.6631 9.30078C74.0698 5.17485 81.5205 2.62117 92.5039 0.508789L92.5664 0.49707L92.6299 0.500977ZM91.5 16C66.922 28.8966 68.1275 37.1109 81.5 52.5C82.0413 61.4941 80.2044 64.1818 71.5 63C65.1761 57.9382 61.8523 54.7972 59 45C39.1061 51.1707 38.9178 63.3096 38 84.5C27.0174 93.7224 24.3663 97.7972 19 111.5C21.3661 125.91 21.6033 134.226 32.5 143C31.0066 158.517 30.5883 167.146 42 180.5L58.5 188.5C64.3972 170.205 72.4001 166.379 87 160C92.2823 160.915 95.0185 161.771 93.5 173C71.1998 188.133 65.3428 196.579 80.5 211.5C97.1658 220.155 104.911 217.741 115 196.5V38.5C110.349 21.8793 104.475 18.2112 91.5 16Z" fill="#40A773"/>
<path d="M65.6518 140.291C54.0697 117.578 56.6134 106.498 69.6518 88.2914C67.7559 81.0793 65.219 79.1889 57.6518 80.2914C38.3642 106.829 37.8695 122.448 57.6518 151.791C60.5708 152.722 69.4679 148.74 65.6518 140.291Z" fill="#40A773"/>
</svg>
