<svg width="373" height="420" viewBox="0 0 373 420" fill="none" xmlns="http://www.w3.org/2000/svg">
<path d="M125.25 295.5L77 189L288.5 284.5L197.5 311L173.5 402L125.25 295.5ZM125.25 295.5H73M22.5 211V243.5M23.5 76.5V109M132.5 21H73M299 21H240.5M350 76.5V109M350 211V243.5M310.5 262.5L140 186M117 176.5L93 166M249.5 295.857L300 298M38 311V280H6V311H38ZM38 37.5V6.5H6V37.5H38ZM38 176.5V145.5H6V176.5H38ZM205.5 37.5V6.5H173.5V37.5H205.5ZM366.5 37.5V6.5H334.5V37.5H366.5ZM366.5 176.5V145.5H334.5V176.5H366.5ZM366.5 311V280H334.5V311H366.5Z" stroke="#40A773" stroke-width="12"/>
</svg>
